<?xml version="1.0"?><svg width="1600" height="1200" xmlns="http://www.w3.org/2000/svg">
 <title>Disco Big Image</title>

 <metadata id="metadata3117">image/svg+xml</metadata>
 <g>
  <title>Layer 1</title>
  <g id="layer1">
   <path id="path7293" fill="black" d="m1145.727417,169.09288c-2.178223,-0.003433 -18.577637,33.991653 -18.584839,38.528976c-0.00354,2.2686 1.280273,8.066086 2.817139,12.898834c1.537109,4.834793 2.814087,10.837067 2.820923,13.299545c0.008911,3.908203 -4.073242,26.676468 -4.981689,27.769485c-0.183716,0.221649 -2.64917,-0.635345 -5.404663,-1.928131l-4.998779,-2.388519l-12.993286,7.914337c-7.148804,4.340729 -13.139404,7.690063 -13.328491,7.455017c-0.193481,-0.237305 -2.174683,-3.536804 -4.38562,-7.349304c-6.243896,-10.775696 -18.562622,-21.903473 -31.393188,-28.223267c-48.790771,-24.032272 -106.672424,6.103424 -111.371094,57.958038c-2.659546,29.324371 14.343323,58.048492 42.207703,71.225952c12.57251,5.944519 17.630249,10.672943 17.690247,16.429688c0.079773,8.141815 -1.401672,8.951691 -12.925049,7.057007c-5.681885,-0.935425 -14.110535,-2.129272 -18.72229,-2.675171l-8.383484,-1.006378l7.28894,7.88382c7.635437,8.21405 8.717773,10.460663 5.190796,10.455109c-1.159119,-0.001801 -8.116638,1.885254 -15.557312,4.208954c-11.508484,3.59491 -14.033264,4.88797 -16.374695,8.63736c-1.535706,2.460022 -2.712341,6.896393 -2.719482,10.048309c-0.012268,4.931519 -0.76178,6.23587 -5.69519,10.110413c-3.11499,2.444794 -5.62085,5.383759 -5.62262,6.538605c-0.001831,1.169861 -1.125732,1.986755 -2.504272,1.84668c-4.493408,-0.4552 -5.789063,0.053345 -6.630981,2.503754c-0.45459,1.332947 -3.45929,3.588226 -6.630737,5.01593c-7.67334,3.447998 -24.341064,16.479767 -32.967346,25.805817c-8.79425,9.510986 -17.998657,23.493988 -21.347717,32.440369c-2.436218,6.509064 -11.454407,26.83725 -17.911011,40.247162c-1.586487,3.298035 -3.678772,6.175354 -4.607788,6.40863c-3.694092,0.922729 -29.021362,17.047668 -28.083313,17.876709c0.550659,0.487549 7.294373,3.165466 14.998474,5.976196c7.702026,2.813049 15.194824,5.756897 16.622253,6.506897c3.506592,1.84967 3.39856,10.238953 -0.233276,18.055969c-3.63385,7.815125 -3.751465,15.318726 -0.23175,18.450195c1.482605,1.318909 3.524597,4.215515 4.451843,6.423157c0.929565,2.207581 2.785522,4.330505 4.18512,4.767822c1.397461,0.437561 2.933716,1.715454 3.375793,2.849365c1.223022,3.140869 6.809082,4.836792 9.324463,2.791626c1.167053,-0.950439 3.527832,-2.090637 5.277954,-2.50592c2.722229,-0.641907 3.247192,-0.186584 3.241882,3.114075c-0.005371,3.434082 3.345825,8.230896 4.78717,6.819946c1.605469,-1.570251 6.514099,-15.738708 6.519043,-18.836792c0.009216,-5.875305 -2.960205,-13.696289 -6.732361,-17.933594c-1.940002,-2.181274 -4.381226,-6.052185 -5.461121,-8.540161c-1.790344,-4.122253 -1.694275,-4.82666 0.96106,-8.33197c2.683594,-3.546326 8.447815,-25.939209 8.501892,-33.055237c0.013428,-1.656738 2.247925,-5.970764 5.015564,-9.514771c5.036499,-6.444641 7.730835,-11.486206 10.106628,-19.294495c0.693115,-2.28479 1.883362,-4.247803 2.641724,-4.293884c3.703979,-0.239868 10.727722,-5.953064 12.796814,-10.431152c1.45697,-3.158264 5.313232,-7.127106 10.494019,-10.695374c4.527039,-3.11911 12.613403,-10.485229 17.942017,-16.373596c13.057251,-14.431549 18.746948,-19.810791 20.922974,-19.807343c1.163452,0.001801 2.128662,2.700745 2.625244,7.4758c0.426697,4.111267 2.863586,12.054352 5.446655,17.668671l4.715088,10.258118l-0.03595,22.815765l-0.036194,22.882385l-5.014587,8.98468c-9.001343,16.374817 -26.538391,53.179626 -32.696411,68.597961c-3.331116,8.347656 -6.974243,16.612793 -8.142517,18.371094c-1.889771,2.855957 -1.862671,3.401123 0.129211,5.360596c2.030701,1.998108 1.913513,2.529968 -0.821716,6.147461c-2.187195,2.892151 -2.564453,4.438416 -1.428589,5.553955c1.000244,0.982056 1.109436,2.806885 0.329956,5.158447c-0.666687,2.011169 -1.928406,8.36908 -2.792664,14.083374c-0.866516,5.712402 -2.428955,12.884155 -3.474365,15.931152c-1.045532,3.046875 -2.962036,12.098877 -4.291077,20.098511c-1.748779,10.515381 -3.552551,16.249756 -6.388428,20.823486c-2.157776,3.478149 -4.255005,8.141418 -4.749817,10.374756c-1.371277,6.207031 -29.856262,61.419556 -31.464783,60.994629c-0.777588,-0.207886 -1.812561,-6.530701 -2.276672,-14.09137c-0.464294,-7.56073 -1.33429,-15.919434 -1.931274,-18.587219c-0.986267,-4.422546 -27.680237,-69.854553 -36.435425,-89.273499c-2.020203,-4.480103 -3.704834,-8.737793 -3.703796,-9.397156c0.001038,-0.659302 3.497681,-3.424377 7.785156,-6.203247l7.850281,-5.080811l-7.491699,-7.75061c-12.812988,-13.291504 -25.647705,-32.139526 -47.350708,-69.648376l-10.115479,-17.475708l0.017456,-11.043579c0.027649,-17.604004 6.35614,-31.811279 24.766968,-55.845215c16.045044,-20.946198 25.473572,-45.875519 22.063232,-58.361633c-0.837585,-3.073608 -3.321533,-8.487396 -5.524353,-12.045685c-5.653992,-9.141663 -8.556519,-18.442657 -8.541748,-27.726196c0.02594,-16.5289 10.781555,-29.089722 38.674805,-45.30542c42.106384,-24.477112 65.545166,-42.567719 68.09668,-52.46991c1.2052,-4.68399 -4.082031,-14.040497 -11.260376,-19.858093c-2.786255,-2.260101 -15.341736,-9.55545 -27.895935,-16.247559c-38.577515,-20.566925 -55.758972,-31.754028 -73.548523,-47.996506c-13.676086,-12.48938 -14.763306,-13.006058 -23.850403,-10.488922c-4.069458,1.129089 -9.533203,2.585495 -12.240356,3.223175c-7.409668,1.737778 -9.52832,6.351471 -7.328735,16.056335c0.96051,4.241592 3.068176,9.342346 4.646423,11.318207c5.339172,6.67009 17.111145,10.723953 36.422729,12.624405c9.086182,0.891113 9.107544,0.908478 37.420776,21.816803c37.052185,27.359619 37.475952,27.752441 37.471924,30.281677c-0.007507,4.759216 -7.374512,9.491699 -52.44696,33.513977c-28.374207,15.12262 -44.607544,23.077087 -47.089478,23.07312c-2.193176,-0.003448 -3.711487,-5.876678 -3.698608,-14.093781c0.00824,-5.190033 0.114136,-5.36441 4.469849,-5.019318c3.562927,0.285706 4.918945,-0.298096 6.427063,-3.029755c2.242798,-4.06189 1.367371,-14.52533 -1.856628,-22.09256c-1.339355,-3.141113 -1.783936,-6.750549 -1.201904,-9.791718c1.833435,-9.569366 0.960205,-26.892517 -1.835205,-35.714996c-6.967346,-21.977844 -18.790955,-31.607513 -41.458862,-33.726578c-18.055847,-1.689575 -23.951355,0.253082 -34.497864,11.385727c-11.808716,12.464294 -16.783875,23.741516 -21.100403,47.782684c-1.949768,10.848816 -4.236694,22.345764 -5.111938,25.519989c-1.857117,6.714691 -12.110596,28.882996 -13.36438,28.880951c-0.469727,-0.000671 -9.601379,-6.077759 -20.260803,-13.523102c-10.659302,-7.44751 -24.88678,-17.279144 -31.672668,-21.807678c-6.785828,-4.532928 -12.359131,-8.753754 -12.358215,-9.34613c0.002808,-1.833435 20.821472,-23.797638 30.201904,-31.894318c30.734009,-26.5289 55.477783,-38.75087 77.269226,-38.106873c15.808472,0.470901 20.399414,-2.193344 25.510376,-14.773727c4.472717,-11.006485 3.853333,-13.155518 -3.764587,-13.167511c-2.667358,-0.004227 -9.321472,-1.893402 -14.800964,-4.187943c-16.81958,-7.047867 -21.731628,-5.777969 -33.409912,8.743988c-6.674805,8.297043 -7.701294,8.939667 -41.958557,26.188034c-33.709412,16.975662 -55.227783,29.213486 -58.871399,33.503708c-2.946228,3.47052 -4.717468,2.25473 -10.536682,-7.225403c-7.927612,-12.917572 -9.607788,-14.467194 -14.851135,-13.447784c-3.454651,0.671082 -5.149353,0.114685 -8.176147,-2.725342c-5.560974,-5.216049 -24.044067,-13.408386 -32.496521,-14.402054c-6.460175,-0.759903 -7.990204,-0.426193 -12.985321,2.954895c-5.178375,3.505783 -6.318359,3.760284 -14.06665,2.888412c-10.203857,-1.147064 -12.790955,-0.041626 -20.974731,8.961823c-5.095459,5.606445 -7.273529,6.874176 -13.734711,8.178223c-13.420013,2.710663 -18.34317,9.711395 -12.603516,17.771545c3.422302,4.805573 1.476959,8.855042 -6.037598,12.820221c-8.756531,4.620422 -9.74588,7.693329 -5.365692,15.796661c4.062225,7.516785 4.26947,11.339142 1.053284,17.924622c-2.03833,4.172089 -2.09024,5.671448 -0.557709,10.715332c0.979401,3.220245 3.766724,7.688629 6.204346,9.928833c4.190704,3.848022 4.871246,4.012787 13.244568,3.259003c4.87204,-0.436066 8.857849,-0.483734 8.857117,-0.05069c-0.000732,0.433105 -1.562897,1.979767 -3.452515,3.433075c-9.65506,7.421997 -7.166077,27.567902 3.403595,27.584564c4.259369,0.006714 8.600891,-4.254456 8.398102,-8.253418c-0.0961,-1.857269 -0.262054,-1.82309 -0.947815,-0.001495c-0.430664,1.141235 -1.726593,3.159973 -2.913483,4.491791c-7.504364,8.418457 -16.481018,-7.189636 -10.585907,-18.400696c3.293213,-6.266418 6.343628,-6.192627 8.18222,0.208984c1.604828,5.599823 5.77597,10.923584 8.63501,10.92807c5.278381,0.008331 6.198883,16.084137 1.51123,26.719788l-2.30481,5.220886l-8.174103,-4.045959c-16.249268,-8.001465 -28.563049,-8.665161 -34.881989,-1.841095c-3.489746,3.766998 -4.807892,19.886597 -5.999329,73.267822l-1.08963,47.482422l-18.118805,-0.028564c-20.258362,-0.031982 -37.240997,-2.006409 -45.422852,-5.22937c-3.005707,-1.185486 -5.768768,-1.904968 -6.150574,-1.530823c-0.381958,0.372192 1.570587,6.786926 4.303711,14.223938c2.735107,7.439514 4.915253,14.459839 4.913483,15.550049c-0.002502,1.609497 -7.670776,6.007507 -10.4888,6.003113c-0.394165,-0.00061 -1.640961,-1.760681 -2.766571,-3.906189c-3.374603,-6.423401 -15.245789,-18.597473 -20.115936,-20.600159c-4.586029,-1.888123 -17.438324,-1.285706 -17.44162,0.83429c-0.000946,0.568726 3.46698,2.45929 7.766724,4.176819c14.333069,5.727539 20.000946,14.248657 13.356018,20.126404c-2.77887,2.455872 -3.000732,2.455627 -7.031464,-0.474365c-4.919373,-3.577759 -6.147186,-3.730408 -8.517181,-0.93988c-3.548492,4.180603 4.926483,10.019531 23.096436,15.908203c9.250885,2.998474 13.096252,3.157654 21.767548,0.697998c2.855988,-0.809875 3.187134,-0.413025 3.171906,3.77301c-0.016754,5.153564 -3.302856,12.294678 -6.444519,14.01123c-3.98053,2.175964 -1.963928,3.512817 3.241241,2.120728c25.11853,-6.710327 87.99881,-37.04071 93.033203,-44.890015c1.565857,-2.445007 3.187042,-4.465454 3.658905,-4.490723c1.812042,-0.111267 19.84787,17.146301 21.802429,20.863586c3.243591,6.173401 2.556915,8.50354 -5.914368,20.82428c-13.863403,20.165405 -18.434357,23.792786 -45.352997,35.24646c-41.227203,17.539001 -62.877899,28.837341 -78.963196,41.275635c-5.448792,4.211853 -14.169708,10.814514 -19.359344,14.651978c-6.621796,4.895203 -10.09201,8.552368 -11.647034,12.346008c-2.746735,6.698242 -10.371887,42.581421 -17.231964,81.055542c-6.127533,34.35614 -11.922668,61.493164 -13.758606,64.394409c-1.498901,2.369568 -1.116638,-2.274719 3.241821,-40.535095l2.947205,-25.922058l-3.091919,-12.173279c-7.486908,-29.986755 -15.945007,-50.622498 -37.577835,-91.655823c-24.925797,-47.277954 -32.827881,-65.316589 -32.808304,-74.981384c0.003082,-1.958374 1.596375,-5.407288 3.52803,-7.599548c5.171295,-5.877991 5.737976,-11.34082 2.129333,-20.96167c-1.699219,-4.531372 -4.501816,-12.942444 -6.259445,-18.661133c-7.604965,-24.747192 -12.505234,-97.372864 -7.068665,-104.635559c1.857864,-2.483337 2.028,-2.435608 6.558105,0.73642c2.956985,2.072845 4.076309,2.716736 4.118301,2.057434c1.262192,1.516602 3.424957,3.11438 2.768417,2.714722c-2.84758,-1.730164 2.931107,7.566711 12.206314,19.663544c5.0784,6.617828 10.445755,14.397552 11.940704,17.278046c1.490723,2.88089 4.200134,6.220154 5.936768,7.416412c3.772766,2.599976 4.565445,2.672363 8.586746,0.608124c6.345581,-3.256134 18.015289,-13.557495 45.69696,-40.267822l19.973999,-19.281006l6.348785,4.374878c11.376099,7.885956 23.74707,6.492096 31.376587,-3.589417l2.640472,-3.498993l-6.81665,-6.823059c-3.732117,-3.726624 -6.484741,-6.926086 -6.141876,-7.153931c0.34079,-0.227753 6.069763,-3.069122 12.790131,-6.328888c6.716248,-3.257843 15.651367,-8.980988 19.828094,-12.664978c6.927612,-6.11203 7.465332,-6.906158 5.82782,-9.580292c-1.280762,-2.089722 -1.362244,-3.735809 -0.329498,-5.62149c2.512939,-4.587189 1.708771,-8.309235 -2.080841,-9.726288c-2.829315,-1.060211 -3.512451,-2.306519 -3.506439,-6.154388c0.009521,-6.041107 -4.315399,-9.566162 -9.383362,-7.686829c-3.14093,1.165009 -3.381897,0.9599 -3.374847,-3.510529c0.006226,-3.977081 -0.524384,-4.956146 -3.507172,-5.693359c-0.964783,-0.238403 -2.009521,-0.345673 -3.041534,-0.336487c-9.970856,0.087585 -22.529541,11.281769 -26.676453,24.626373c-1.48761,4.793396 -4.558289,10.614349 -7.187042,13.546631l-4.672516,5.217133l-5.199432,-5.034424l-5.130524,-4.967682l-7.579315,4.023376l-7.643707,3.95639l2.759186,7.277771c1.527649,3.958038 2.826508,8.262482 2.824371,9.593964c-0.004303,2.759857 -19.459656,18.226074 -29.511993,23.497314c-15.397797,8.076508 -19.948883,6.009674 -29.389114,-13.604309c-3.367142,-6.994324 -6.131958,-13.390961 -6.130707,-14.162201c0.001205,-0.771301 -1.449661,-4.313416 -2.762192,-5.362488c-0.51207,-0.405853 -1.907166,-1.082428 -3.446487,-1.789307c0.412567,-0.622009 0.84433,-1.246155 1.289093,-1.848663c0.418533,-0.303162 1.671402,0.327911 2.702301,0.993073c-0.287537,0.611481 -0.490906,1.166962 -0.476242,1.455719c0.044083,0.762787 0.408585,0.522003 0.81073,-0.461945c0.097305,-0.232513 0.237564,-0.374542 0.341278,-0.529419c0.219482,0.168396 0.428162,0.34964 0.539993,0.466217c0.043488,-0.200378 0.257309,-0.553345 0.473282,-0.927917c0.368271,0.095367 0.770813,0.386871 1.351746,0.863983c2.235458,1.824066 11.253922,0.60379 12.711731,-1.701385c1.256989,-1.982208 -1.78949,-4.695129 -8.371475,-7.353424c-2.053925,-0.828339 -3.326752,-1.188019 -3.919113,-1.195374c-1.725403,-1.543243 -5.670288,-4.233856 -9.247696,-7.751312c-3.166351,-3.111664 -7.580139,-9.036926 -9.784088,-13.176971c-3.018036,-5.673004 -4.919296,-7.770233 -7.831223,-8.34787c-3.812119,-0.751434 -15.188263,-11.457611 -14.782349,-13.910919c0.115479,-0.695709 3.703262,-1.08432 7.978256,-0.913818l7.775055,0.277222l4.676498,-7.664551c4.64621,-7.619476 6.374023,-8.946075 8.056702,-6.267578c2.368225,3.767487 4.620255,0.677338 6.842224,-9.38269c1.30838,-5.920502 2.387161,-12.336884 2.390182,-14.215637c0.002975,-1.876434 1.656403,-6.626495 3.666321,-10.507935c2.995102,-5.779938 5.249756,-7.892059 12.594437,-12.017029c9.556946,-5.368958 13.020935,-9.247925 16.795319,-18.691345c3.445679,-8.618896 3.003418,-17.804047 -1.176208,-26.057785c-8.228119,-16.25116 -18.004807,-23.167282 -41.599579,-29.163727c-12.462814,-3.169418 -16.477982,-3.632477 -26.768112,-2.952805c-15.175568,1.001572 -30.653549,5.202118 -42.543365,11.506699c-12.204315,6.469925 -17.642166,11.776367 -23.089691,22.581009c-4.02179,7.975906 -4.560165,10.269501 -4.562439,20.759567c-0.003342,14.107346 3.952911,23.659988 11.921204,28.853989c3.434967,2.237427 6.266617,6.147919 9.51181,13.042969c2.544266,5.405182 4.648148,10.691223 4.646515,11.712463c-0.004028,2.580994 -5.331146,5.578125 -11.503296,6.4646c-4.474945,0.643677 -5.994095,0.012085 -11.216064,-4.382568l-6.07666,-5.035919l-13.522194,0.375092c-12.591972,0.350708 -14.096863,0.076874 -22.439613,-3.872467c-4.925423,-2.330292 -9.166092,-4.245758 -9.390785,-4.246124c-0.22451,-0.000366 -1.252411,1.906769 -2.237656,4.227783c-1.656242,3.903503 -1.459221,4.562958 2.21788,8.33905c2.187729,2.244141 3.705803,4.228607 3.373238,4.50177c-0.332298,0.270874 -3.841797,2.290497 -7.781754,4.417206c-6.37075,3.441437 -7.626785,4.928162 -11.582626,13.67334c-2.446266,5.408081 -6.458435,15.202423 -8.890606,21.677002c-2.432072,6.47464 -5.081974,13.297821 -5.905849,15.203217c-2.05407,4.745209 -8.283432,22.416992 -8.285217,23.530823c-0.000786,0.495514 8.069237,-3.104706 17.860912,-7.975616c9.791676,-4.868683 18.062122,-8.50528 18.469746,-8.103973c0.60022,0.589142 -13.814339,66.167389 -24.786987,112.785309c-2.327946,9.891724 -4.122318,11.907684 -7.314457,8.123688c-1.192612,-1.413116 -1.223953,-3.815369 -0.053234,-9.126251c0.867943,-3.936981 1.268475,-7.896271 0.892929,-8.859955c-0.375664,-0.96579 -3.57481,-3.302032 -7.158199,-5.171265l-6.484997,-3.381836l-5.350531,6.008881c-3.586433,4.06839 -6.181366,5.874084 -8.054089,5.541565c-2.491365,-0.43924 -3.129517,1.18222 -5.974756,16.127411c-1.740573,9.14502 -3.551598,20.795685 -4.097364,25.920197c-0.988751,9.279968 -1.016571,9.327209 3.831347,14.094055c4.703201,4.622131 13.02187,7.569763 17.095295,6.042114c1.00267,-0.373169 2.637424,-3.899719 3.663033,-7.795532c1.025414,-3.897949 2.457092,-7.073547 3.188538,-7.072327c0.731659,0.001099 4.519482,1.595032 8.377876,3.518494c7.960709,3.968201 7.948067,4.000488 5.376011,20.775208c-0.885529,5.77478 -1.298996,10.845703 -0.896793,11.24054c0.402287,0.394897 6.976261,1.598816 14.598988,2.735596c7.622833,1.13446 14.080093,2.290771 14.328949,2.534668c0.248665,0.245911 -0.530884,2.233337 -1.69738,4.429077c-9.366859,17.630066 -4.296204,60.317871 13.877922,117.015076c2.566681,8.005554 4.969574,17.691528 5.374825,21.501221c0.405533,3.81189 2.7724,15.029419 5.233963,24.941711c5.745415,23.130676 6.018913,34.536682 1.010727,45.040466c-4.03418,8.458313 -8.825211,13.621521 -20.655205,22.188416c-9.226852,6.679443 -20.960472,19.385071 -40.566254,43.914856l-13.615784,16.974976l4.371014,14.887573c8.016739,27.31604 9.469772,31.3797 26.386421,73.385864l10.775272,26.669983l9.939514,-0.777405c15.587151,-1.17334 16.295654,-1.391846 16.30291,-5.993835c0.014671,-9.328796 16.990677,-64.634949 32.347061,-105.301758c19.695007,-52.156372 27.489716,-72.576904 32.585922,-85.198059l5.633514,-13.812073l-5.098923,-67.929321c-4.527054,-60.385742 -5.084869,-72.91687 -3.205414,-67.924255c0.287018,0.760986 4.26619,7.94165 8.898987,15.950684c4.632553,8.010986 12.22847,21.841492 16.853455,30.714417c8.068222,15.477417 46.074631,85.434265 50.423706,92.798584c2.288315,3.879517 2.255936,3.993652 -38.375565,69.847046c-21.227966,34.403381 -32.048752,60.539307 -45.741791,110.569885c-3.517365,12.852356 -6.217499,23.501831 -5.986847,23.665894c1.724213,1.237244 114.449768,7.574646 128.307831,7.215027c13.851563,-0.361511 13.579834,-0.22644 10.82254,-3.223267c-2.301331,-2.500488 -2.020905,-2.648865 7.578613,-3.56012l9.939941,-0.977478l0.007629,-4.828247c0.031525,-20.012573 13.424744,-30.313354 20.779053,-15.970459c1.696869,3.307617 3.516388,9.37323 4.035461,13.497498l0.934021,7.5401l11.832214,0.018494c11.795563,0.018677 11.899078,0.001587 11.904633,-3.551147c0.005524,-3.503052 -2.306061,-32.354797 -3.380219,-42.46521l-0.532745,-5.091919l16.831482,0.819519l16.831299,0.886108l0.004974,-3.175659c0.002808,-1.745117 -1.284882,-10.3974 -2.807098,-19.250122c-1.522095,-8.85083 -5.555359,-34.678345 -9.037872,-57.350708l-6.357483,-41.211975l0.063263,-40.145813l0.063385,-40.208496l10.694305,-6.597229c20.9422,-12.915222 77.924927,-49.556763 89.465942,-57.52948c6.451111,-4.453674 12.025604,-7.805908 12.384735,-7.451965c0.359253,0.351624 -4.200684,9.309082 -10.172241,19.888855c-29.257324,51.846191 -39.324493,71.96991 -44.288544,88.486816c-3.014893,10.032837 -2.90329,7.574829 -8.421021,152.625427l-0.847412,23.740845l10.611115,1.007751c5.846283,0.547729 13.530975,0.764526 17.105621,0.490112c3.574677,-0.2724 6.491608,-0.147095 6.490936,0.275208c-0.000702,0.426575 -4.708801,2.164307 -10.485382,3.820557c-5.778564,1.654175 -12.289581,4.485535 -14.479218,6.326477c-3.645905,3.064209 -3.992401,4.250732 -4.484802,14.541748c-0.296265,6.176514 -0.185699,12.64209 0.248993,14.351196l0.738281,3.109985l29.070557,-0.350464l29.072784,-0.350525l0.011322,-7.210938c0.103058,-17.601868 13.100922,-28.482666 20.039124,-16.764587c1.392426,2.352661 2.924927,7.303833 3.360748,11.049011c1.623962,13.965576 0.701019,13.095825 13.367157,13.115723l11.222412,0.0177l0.006287,-3.968445c0.003479,-2.178101 -0.67218,-12.292297 -1.520142,-22.423706c-1.383057,-16.513916 -1.338989,-18.521851 0.707458,-19.639038c2.055054,-1.123291 2.113831,-1.601685 0.210754,-5.226318c-2.684998,-5.105774 -2.717773,-10.332581 -0.049133,-12.497986c1.143188,-0.924622 5.070923,-2.383423 8.728394,-3.291199c3.655579,-0.90979 7.346741,-2.696411 8.119812,-3.891052c2.110168,-3.267151 -1.574219,-12.726868 -16.834778,-43.740356c-24.718567,-50.239929 -30.62561,-66.991516 -30.35675,-85.827576c0.418274,-28.911987 12.160278,-57.769592 35.835693,-87.967834c34.583923,-44.105408 39.002686,-51.044495 43.105896,-67.98468c7.297302,-30.122803 -4.259155,-54.882813 -34.767761,-74.258545c-4.420898,-2.807739 -8.687561,-6.449097 -9.451904,-8.083313c-1.994751,-4.260254 1.927368,-21.38208 7.215576,-31.600891c3.505005,-6.7724 4.138367,-9.380493 3.471497,-14.213837c-0.592041,-4.286163 -0.350464,-5.886658 0.955261,-5.884552c2.613342,0.00412 11.375793,9.426453 27.063477,29.142883c7.592407,9.536682 16.471313,20.139893 19.773071,23.575134c3.301636,3.432739 14.745728,18.708679 25.435852,33.966064c10.685669,15.259705 20.709412,29.447449 22.259705,31.515991c2.747375,3.664734 2.824341,4.115112 0.582336,17.329285c-3.372986,19.856506 -3.799561,23.992371 -4.198242,45.889648c-0.40094,22.108093 -0.727234,21.239502 10.102417,24.552917l4.933411,1.528748l0.832092,29.696167c0.446106,16.318604 1.513428,34.990845 2.367126,41.470459c0.858093,6.479736 1.714111,19.573853 1.916809,29.10321l0.377747,17.326721l-4.730408,-0.470642c-4.504333,-0.437866 -4.70697,-0.298279 -3.995483,3.432068c0.412415,2.155212 1.836243,26.88623 3.15802,54.898315l-0.588928,116.727539l12.230652,4.185852c7.482361,0.011841 17.766052,-67.347961 16.737854,-68.358032c0.305786,0.155823 2.031799,1.332397 2.299377,1.061401c0.319275,-0.329041 1.933899,-11.807556 3.623047,-25.522461c1.684875,-13.714661 3.364929,-27.086853 3.696533,-29.755615c2.958923,-23.737488 4.050171,-44.982971 6.486206,-125.182983c0.688782,-22.719849 1.588745,-41.630127 2.026794,-42.058167c0.433777,-0.425842 10.838562,0.331787 23.116882,1.688904c16.060669,1.778931 27.174988,2.208008 39.548706,1.585693l17.174622,-0.832825l10.658325,14.895508c5.855835,8.211243 15.639954,21.383972 21.789185,29.26825c11.812622,15.138489 18.467712,27.48761 22.044128,41.102844c2.985413,11.358704 2.818848,13.232727 -1.102234,13.226563c-3.180054,-0.004944 -3.199646,0.178162 -2.177795,9.321045c0.575806,5.145874 1.070862,17.821167 1.103943,28.108826c0.05542,16.802551 -0.629272,21.997925 -6.572815,51.642578c-6.45575,32.209656 -6.746094,33.180969 -12.095215,39.793213c-3.015625,3.724487 -5.486084,7.396179 -5.487305,8.126465c-0.00116,0.726013 1.551575,2.512451 3.43866,3.971619c2.934998,2.266968 3.604065,4.336304 4.575073,14.293518c1.098328,11.243652 1.235535,11.694275 4.850098,12.111389c3.674866,0.419434 3.775879,0.600464 3.028564,8.534119c-0.681458,7.231628 -0.463318,8.248779 2.216736,9.659851c1.648926,0.866638 6.290649,1.694702 10.340698,1.867004c7.311646,0.311035 7.386963,0.294006 10.757324,-5.604004l3.389771,-5.945129l3.712891,3.640381c5.924011,5.828369 25.15863,14.224426 37.7005,16.461182c14.172485,2.530212 22.156555,2.691284 26.770142,0.638916c6.198486,-2.758667 4.646118,-7.490234 -4.777527,-14.291565c-5.153809,-3.722351 -6.751648,-5.685425 -6.747192,-8.544312c0.00354,-2.21051 -1.341003,-4.778564 -3.234619,-6.285461c-4.144348,-3.302612 -3.07428,-4.221008 2.979187,-2.50946c8.78418,2.484985 8.377258,3.634949 8.421204,-24.258789l0.040466,-25.66156l7.138733,-26.639526c3.90332,-14.654663 9.295227,-34.71936 12.038391,-44.621277c2.743103,-9.906067 4.966492,-20.829956 4.97406,-24.26416c0.007507,-3.436218 0.745911,-8.448486 1.570984,-11.108093c0.829224,-2.661499 2.055298,-8.239624 2.723389,-12.430969c0.881226,-5.505493 3.458374,-11.243225 9.363647,-20.75c4.492615,-7.234009 10.870789,-18.78479 14.171387,-25.637207c5.494568,-11.414185 7.621704,-17.327026 11.882751,-33.381714c0.827942,-3.114014 4.856689,-11.163269 9.020813,-17.906433c5.829895,-9.442444 9.389038,-13.500061 15.374023,-17.633667l7.783875,-5.345825l14.108582,14.308289c50.127136,50.807861 61.476501,61.912537 69.866394,68.559265l9.316895,7.421753l-2.583374,9.716736c-3.894165,14.441711 -6.13501,41.881592 -5.309692,65.004395c0.819214,22.926758 -0.927368,36.227966 -9.782593,73.393311c-2.787109,11.685608 -4.726563,21.590942 -4.294189,22.016113c0.430176,0.424927 5.879028,0.263428 12.169067,-0.444031c6.290039,-0.707703 11.713379,-0.994141 11.966675,-0.575989c0.255859,0.41864 0.847046,6.84613 1.397583,14.288574c0.911377,12.258057 1.307617,13.615967 4.03418,14.22345c9.10376,2.031006 15.687988,3.303894 15.882202,3.067139c0.125122,-0.146423 1.94458,-3.534485 4.002075,-7.534119c5.599121,-10.881897 9.266724,-9.979797 16.354126,4.19458c4.559326,9.113953 8.134277,11.429199 21.881958,14.187073c33.870117,6.794617 48.095459,-10.648987 17.612061,-21.598633c-8.272461,-2.971191 -13.5802,-7.689026 -18.024536,-16.033813c-2.25769,-4.241333 -2.421631,-4.179199 5.146484,-5.149658c3.74939,-0.483276 7.905029,-1.622864 9.199097,-2.564331c2.120361,-1.547852 2.127808,-2.310547 0.28125,-7.538025c-1.123901,-3.183777 -2.720459,-10.013977 -3.560913,-15.218201c-0.83667,-5.204407 -5.208496,-26.600708 -9.727783,-47.566284c-10.786011,-50.045532 -12.076782,-56.765198 -15.492188,-79.717712c-3.747437,-25.212769 -5.886475,-32.450928 -13.382202,-44.594421c-3.403809,-5.516479 -9.123779,-16.3927 -12.670776,-24.160706c-3.546875,-7.765808 -9.444214,-19.853088 -13.074097,-26.80481c-3.630249,-6.95166 -6.774658,-13.017151 -7.010986,-13.502197c-0.238281,-0.485168 1.344727,-1.514648 3.519653,-2.310364c2.175293,-0.793762 9.065063,-3.381287 15.288574,-5.728333l11.295898,-4.282593l5.331665,5.961182c2.927246,3.264404 7.98584,11.258972 11.263428,17.742432c3.277466,6.483521 6.183838,12.036011 6.403076,12.378784c0.219116,0.342896 2.527466,-1.534241 5.21167,-4.158386c3.066162,-2.998535 7.568115,-10.551392 12.000122,-20.418335c6.715454,-14.954163 9.240479,-19.097473 17.759155,-28.608887l3.723022,-4.158691l-0.682129,4.824768c-1.855591,12.607056 -4.008301,40.20874 -3.588989,46.356018c0.408447,6.022461 1.046509,7.206177 4.985352,9.466003c2.468872,1.412842 8.782715,3.303589 13.988647,4.253357l9.397339,1.734009l14.611816,36.661743c8.03418,20.178223 14.609741,37.95636 14.6073,39.505432c-0.011353,7.245422 -9.832153,40.492493 -25.419922,85.935608c-9.393677,27.385498 -17.821167,52.988708 -18.680664,56.912659c-1.503662,6.855347 -1.366943,7.517029 3.553711,17.135803c6.387573,12.477844 16.227539,22.968262 25.44873,27.22052c10.223755,4.717102 23.633301,4.583069 33.937256,-0.342773c9.976074,-4.767212 28.963135,-19.658936 34.591553,-27.12616c6.643311,-8.818298 6.884399,-11.483215 1.582397,-16.862488c-5.498291,-5.575684 -9.952515,-18.643188 -15.683228,-46.119263c-6.662842,-31.956726 -5.361572,-51.105835 5.128174,-78.297729c5.849976,-15.166748 5.813965,-19.77948 0.342041,-46.096008c-5.882202,-28.2995 -10.307129,-58.421204 -8.829224,-59.864624c1.227661,-1.200195 28.02356,-4.514648 29.549683,-3.65918c0.553101,0.313293 4.533203,6.692383 8.901489,14.10199c4.372925,7.409668 13.204224,22.220398 19.622681,32.901489c20.026978,33.317871 19.598267,32.071838 18.650269,49.827332c-0.630615,11.781738 -2.314941,21.015259 -7.367188,40.263733c-12.605957,48.037292 -16.661865,76.107666 -18.657593,128.472961l-0.706421,19.044312l3.651733,0.005798c3.28125,0.005127 3.596436,-0.412292 2.776245,-3.632507c-0.507324,-1.995667 -1.186646,-5.616211 -1.542847,-8.003967c-0.524292,-3.536377 0.015503,-2.951538 2.903809,3.044495c3.317627,6.89093 3.814697,7.356873 8.100464,6.958618c4.473267,-0.4151 4.585571,-0.63678 5.01709,-7.797485c0.385132,-6.421875 0.955566,-7.476563 4.137329,-8.656555c1.998291,-0.740234 5.695679,-0.990662 8.248047,-0.517151c3.760498,0.699829 4.728394,0.425659 5.276733,-1.644043c0.470215,-1.781067 0.764893,-1.450867 0.877441,1.126038c0.095215,2.221252 1.504517,4.692627 3.641602,6.22345c1.952026,1.399292 5.729004,6.627502 8.296021,11.586853c4.385864,8.467529 4.962402,9.050049 9.990356,9.471619c4.010986,0.33606 6.19458,-0.37384 8.727295,-2.696533c3.357422,-3.084229 4.930298,-1.90979 1.687378,1.258667c-1.320679,1.290649 1.367554,1.721375 12.029907,1.738159c11.827881,0.018677 14.05835,-0.365601 16.500854,-2.750916c5.474121,-5.347595 1.593384,-17.26123 -5.988159,-18.328857c-2.01416,-0.285278 -3.292236,-1.517517 -3.575317,-3.513062c-0.417847,-2.906982 0.069336,-3.106689 7.305908,-3.095215c12.054443,0.018982 12.332886,-0.340332 9.071167,-8.782227c-3.876953,-10.039551 -11.87146,-39.262268 -15.057007,-54.979858c-3.330444,-16.430725 -5.026978,-32.434509 -7.728271,-72.099915c-2.518555,-36.989502 -5.691284,-67.533997 -7.790283,-75.407288c-3.032715,-11.37616 -27.348389,-61.684143 -45.622559,-94.378845c-2.558716,-4.577942 -5.122437,-11.476196 -5.654907,-15.286194c-1.727905,-12.354187 -11.534668,-48.066711 -18.754761,-68.151245c-11.542603,-32.102173 -18.66394,-64.26004 -20.741821,-93.876282l-0.794312,-11.245392l8.363037,12.513428c14.656738,21.93396 30.019043,39.118378 51.966431,58.148773c22.734985,19.714539 35.048096,34.756836 52.1604,63.571716c5.324829,8.96228 10.410645,16.28479 11.263672,16.286194c0.855347,0.001221 2.538818,-1.973999 3.725586,-4.423828c2.007935,-4.139771 2.206665,-1.597534 2.918945,35.716797l0.816162,40.078369l6.249146,25.010132c8.979248,35.786682 9.985596,45.205383 8.530273,78.646667c-0.674927,15.420532 -1.088501,55.134949 -0.951416,88.290161l0.24353,60.316467l12.160156,5.174744c6.710693,2.867371 13.038818,5.247131 14.053833,5.248779c2.63501,0.004211 2.314819,1.966431 -1.570435,9.455627c-5.041748,9.717285 -8.327148,21.988159 -7.411743,27.565369c1.623901,9.910889 11.219604,15.624451 26.341431,15.648315c11.504883,0.018127 18.51709,-2.368652 21.91626,-7.437012c2.072998,-3.090637 2.257813,-5.425659 1.178467,-17.789734c-0.681519,-7.825989 -0.999268,-19.398132 -0.702637,-25.727295c0.505859,-10.872864 0.711792,-11.61792 4.143799,-12.890137l3.653931,-1.3172l-0.925659,-14.15387c-1.924438,-29.878845 -7.798096,-88.099426 -9.851685,-97.696472c-1.18042,-5.523621 -3.070801,-17.117554 -4.218384,-25.799683c-1.894897,-14.338623 -1.912964,-16.385315 0.171021,-22.352051c1.770264,-5.07312 2.1698,-9.745483 1.587646,-20.434814c-0.550781,-10.057678 -0.210449,-15.34845 1.24585,-19.375c2.721924,-7.527832 2.549927,-11.955322 -0.781128,-18.385254c-3.088745,-5.96405 -3.753906,-21.442688 -1.432373,-34.591919c0.671753,-3.810181 2.059814,-17.773376 3.091309,-31.012939l1.929443,-24.068542l3.982544,4.633911c6.275391,7.292053 15.941895,28.119202 20.819092,44.873474c5.087036,17.472107 8.291748,26.443909 13.060547,35.401184l0.765625,-485.825729c-1.190552,-0.439224 -2.371948,-0.027435 -4.058228,0.85318c-2.007202,1.048187 -8.846436,6.925613 -15.23291,13.072891c-16.150513,15.540466 -22.462402,28.560669 -17.905884,36.937897c1.426514,2.62207 17.071655,10.937042 20.603027,10.946899c1.777344,0.002777 1.57373,12.998138 -0.307983,23.211578l-1.021851,5.886536l4.461792,0.006989c2.643677,0.004242 4.163574,0.581848 3.649414,1.39328c-0.481323,0.761963 -2.932129,1.382813 -5.409546,1.381073c-12.487427,-0.006714 -18.363037,9.752289 -25.828491,42.880341c-5.120239,22.723511 -11.49353,39.263977 -21.993896,56.773895c-2.054321,3.428833 -8.74707,14.976959 -14.846069,25.638245c-6.10083,10.661407 -15.525757,26.483948 -20.946899,35.215973c-14.45874,23.286285 -15.046997,27.520966 -3.488281,25.988068l6.354858,-0.91861l-0.68457,6.548523c-0.359009,3.590881 -0.8302,7.27417 -1.094116,8.131226c-0.725464,2.329956 -20.072144,3.570618 -29.008423,1.871826c-4.273438,-0.812439 -11.232544,-3.22345 -15.473755,-5.313721c-8.475342,-4.179932 -24.595337,-18.90094 -33.618896,-30.805511c-8.244995,-10.880066 -22.537354,-34.319397 -31.288208,-51.303833c-10.043213,-19.489868 -19.16333,-32.950165 -24.14917,-35.487366c-2.628418,-1.337769 -10.412964,-2.429352 -21.763794,-3.009613c-9.726685,-0.500092 -17.711426,-1.417542 -17.710449,-2.078949c0.001099,-0.659271 3.25708,-5.277588 7.250488,-10.239441c3.993896,-4.963989 6.947876,-9.341553 6.571655,-9.712738c-0.374512,-0.368988 -9.799683,3.334778 -20.969482,8.235748c-11.170044,4.898895 -20.730835,8.675629 -21.243286,8.364563c-0.512329,-0.311005 -0.788818,-3.984772 -0.661499,-8.133972c0.195679,-6.478241 0.753784,-7.974731 4.140503,-10.576202c3.876343,-2.982208 4.044312,-2.92807 8.721802,-0.449493c3.879028,2.054932 5.408569,2.1651 8.314819,0.872681c8.496826,-3.778351 11.265625,-20.387024 5.391846,-32.33194l-3.034302,-6.153625l4.140747,-9.649658c2.270508,-5.298553 5.483887,-15.518555 7.201538,-22.67511c3.066284,-12.771027 3.12085,-13.184662 0.713623,-23.542664c-3.092285,-13.302155 -7.532593,-21.515472 -17.460449,-32.301285c-9.988159,-10.850464 -20.567017,-17.537338 -29.379028,-18.628464c-3.709351,-0.460419 -10.898438,-2.007828 -15.950439,-3.399002c-5.052368,-1.391098 -14.462402,-2.937759 -20.884399,-3.404587c-10.249512,-0.746475 -12.97998,-0.378128 -22.587158,2.806076c-7.96936,2.643906 -12.611938,5.191772 -17.05249,9.366577c-6.364868,5.985794 -16.93042,21.080505 -23.782471,34.086838c-3.03833,5.771301 -4.158447,6.948029 -4.603516,4.885498c-1.268311,-5.849182 1.03772,-25.435974 3.972534,-33.984467c2.872314,-8.361252 3.061768,-12.534073 0.841187,-18.186584c-0.603149,-1.526321 0.057739,-2.468918 2.03418,-2.972137c1.594727,-0.406738 3.333496,-1.836792 3.857056,-3.169525c1.522827,-3.869171 -2.092407,-14.856171 -5.988647,-18.262024c-3.86853,-3.382095 -10.289551,-4.167816 -12.978149,-1.541519c-3.445923,3.366348 -3.291626,-0.360596 0.422729,-11.241226c3.638428,-10.656647 3.854614,-15.273315 0.836304,-15.278061l0,0zm-904.795242,216.292038c-0.032578,0.142059 -0.034836,0.260529 0.066422,0.263c0.127121,0.002258 0.077713,-0.114227 -0.066422,-0.263zm852.566238,-107.845917c0.036621,-0.036621 0.165894,-0.019226 0.338257,0.000549c2.597778,0.294952 19.433594,6.577942 20.944214,7.903168c0.655884,0.571899 0.23291,2.501709 -0.950562,4.296661c-2.749268,4.15802 -5.671997,11.734924 -9.369141,24.192688c-1.626587,5.478363 -5.469971,13.516968 -8.613892,18.04071c-3.113892,4.474091 -6.990967,12.030212 -8.614258,16.78244c-1.623413,4.752441 -3.508545,8.965607 -4.207275,9.38681c-0.694336,0.419037 -1.946289,3.260834 -2.780518,6.277985c-0.834229,3.014954 -2.081299,5.484192 -2.779297,5.483063c-0.700317,-0.001068 -3.377319,2.134033 -5.958008,4.751892c-2.986572,3.031006 -6.641724,5.089142 -10.014404,5.674133c-6.066406,1.050476 -7.031738,-0.204987 -1.685547,-2.18515c3.953491,-1.469543 8.201904,-9.606598 6.848022,-13.085999c-0.542847,-1.39267 2.130615,-5.384979 7.588745,-11.428192c4.640381,-5.139709 10.090942,-11.949951 12.127441,-15.124512c8.986938,-14.030731 12.539063,-35.578278 8.598999,-52.300873c-1.057129,-4.493774 -1.738281,-8.405182 -1.472778,-8.665375zm56.539185,30.115662c0.506348,0.000793 1.298584,3.149689 1.816162,7.011292c0.515137,3.861603 1.756226,7.816986 2.756836,8.798859c1.000244,0.984039 2.80481,4.056915 3.979004,6.82077c2.934326,6.911804 13.558105,17.771912 23.624512,24.108978c6.822876,4.295929 8.207642,5.829895 7.491211,8.082367c-1.569946,4.922607 -2.40332,18.416748 -1.456787,23.40802c1.179443,6.217468 7.159668,13.30423 11.268311,13.310699c6.989014,0.011017 12.185547,-9.522888 12.206055,-22.400055l0.012939,-8.268677l5.873779,4.904144c3.253174,2.739136 9.351563,6.070892 13.509888,7.363678l7.569214,2.325806l-0.488159,9.125458l-0.352905,9.061157l-28.331055,1.476349c-15.550171,0.826538 -28.563965,1.572937 -28.937012,1.671478c-0.372925,0.102783 4.622437,3.447937 11.074951,7.424438l11.754028,7.296265l-4.871582,1.644897c-13.959473,4.711151 -25.174194,13.242432 -30.256714,23.032867c-2.826538,5.448486 -3.922363,10.339539 -4.901123,21.683289c-1.299194,15.066284 -6.942261,78.202087 -10.737305,119.953735c-2.929321,32.260559 -2.838013,31.915894 -9.525879,39.004395c-7.766968,8.232849 -15.309692,12.363892 -28.689819,15.695251c-6.093018,1.515686 -11.358765,3.019714 -11.70166,3.355164c-0.341187,0.333496 1.804932,1.582153 4.726563,2.784607c2.923828,1.200195 5.000977,2.388611 4.662354,2.71759c-0.338745,0.331421 -6.022217,1.757324 -12.647461,3.153625l-12.038696,2.562073l-12.75708,-13.248352c-18.098145,-18.774292 -17.518799,-17.34729 -10.907227,-27.92395c32.402954,-51.864563 49.404663,-103.019043 46.937378,-141.12442c-0.466553,-7.24173 -2.65271,-24.032654 -4.874634,-37.374512c-3.875854,-23.263428 -3.942871,-24.394684 -1.580811,-27.713013c1.358276,-1.904541 3.760376,-6.007172 5.3573,-9.051056c1.594849,-3.048218 5.079834,-7.907501 7.792358,-10.768646c3.649292,-3.857086 5.570435,-7.706299 7.391968,-14.935913c1.350464,-5.36676 4.511719,-13.936462 7.059814,-19.036346c2.550415,-5.095642 5.133789,-12.037476 5.703491,-15.464294c0.572144,-3.431213 1.912842,-7.925415 2.990967,-9.983307c1.076294,-2.055878 1.970337,-6.169464 1.974976,-9.120972c0.006104,-3.822083 0.927734,-6.255127 3.25769,-8.395111c1.803955,-1.654022 3.758057,-2.969452 4.26416,-2.968628zm-370.25177,20.775635c2.019409,-0.39325 4.641357,11.942993 3.080566,17.994537c-0.938538,3.652527 -5.503662,4.965942 -7.304688,2.104187c-0.782288,-1.248718 0.68512,-9.569 3.206787,-18.445709c0.303345,-1.065948 0.64447,-1.580414 1.017334,-1.653015zm-207.766357,6.618408c1.144348,-0.148956 4.322571,2.176392 8.844604,6.494568c11.670288,11.141907 19.878052,17.085999 45.583313,33.138458l22.760925,14.190613l-2.440369,3.699615c-14.99408,22.679993 -40.278381,44.37854 -67.087769,57.629181l-7.781372,3.822662l4.93042,2.058929c2.699951,1.098724 11.657166,3.123016 19.938782,4.527893c8.281555,1.404785 21.509155,4.754059 29.396606,7.453278c28.274841,9.681335 77.171509,27.879578 77.97345,29.022644c1.362732,1.945465 -1.267639,16.869629 -4.434631,25.124817c-1.637817,4.269592 -5.475281,11.440002 -8.543884,15.927246c-3.066528,4.484985 -6.410339,8.76062 -7.383301,9.511047c-3.621704,2.801453 -26.427612,-3.393982 -47.101929,-12.839417c-17.7099,-8.09198 -28.360474,-15.537292 -39.236755,-27.440643c-19.169556,-20.977814 -26.953064,-33.641235 -32.57196,-52.695343c-1.759399,-5.970673 -4.770874,-13.113037 -6.602112,-15.815491c-5.274902,-7.798828 -16.979126,-15.200562 -31.675537,-20.021729c-8.103149,-2.66272 -13.308655,-5.090393 -13.306885,-6.238708c0.001587,-1.038361 2.703674,-3.957733 5.958557,-6.47113c3.253052,-2.515656 8.773621,-7.182129 12.253967,-10.432007c4.135986,-3.860748 7.150757,-5.637665 8.727112,-5.144012c1.328491,0.415741 3.496155,0.298584 4.802612,-0.190643c5.962646,-2.233368 8.725159,-17.585968 4.296631,-23.802032c-1.996948,-2.803955 -1.956665,-3.773376 0.016418,-10.382294c2.436584,-8.167999 5.617859,-11.687653 14.966919,-16.246857c3.499207,-1.707275 6.818359,-3.834869 7.375488,-4.685089c0.079895,-0.120453 0.174805,-0.174164 0.340698,-0.195557zm718.053284,4.042603c1.057861,-0.054321 2.018677,1.431549 3.843384,5.493408c3.488892,7.761505 3.150269,19.039551 -0.713257,24.798737c-2.751221,4.100006 -9.360107,4.914703 -12.241943,1.503998c-1.423462,-1.687042 -1.153687,-3.339111 1.164429,-8.663452c1.574097,-3.617004 3.264038,-9.786804 3.808838,-13.750153c0.545044,-3.961151 1.884888,-7.964233 2.987305,-8.856567c0.410034,-0.333282 0.797852,-0.511475 1.151245,-0.52597zm-96.376343,22.663727c0.280029,0.000427 3.135132,1.256653 6.348877,2.78714c3.216431,1.530304 6.500122,2.787323 7.230469,2.788483c1.897949,0.00293 3.036499,3.563904 3.0271,9.462738c-0.01123,7.193695 -2.277832,14.004669 -5.909668,17.779999c-3.767822,3.919525 -4.134033,3.908142 -8.519409,0.516571c-6.302612,-4.874725 -8.723267,-19.242249 -4.755249,-28.513031c1.131104,-2.641724 2.293579,-4.822388 2.577881,-4.821899zm-646.269226,4.270477c1.24939,0.073029 2.678589,5.039215 2.687866,10.123718c0.008179,4.395081 -0.903809,7.474426 -2.922058,9.981323c-2.894897,3.595428 -6.152039,4.727844 -7.510254,2.569153c-0.599609,-0.957642 5.711548,-20.546631 7.203064,-22.343323c0.168335,-0.204346 0.362549,-0.339752 0.541382,-0.330872zm-304.046448,10.499817c0.05806,0.000122 0.083969,0.004425 0.133514,0.000244c0.141647,0.334167 0.171371,0.672424 0.134079,1.058014c-0.701477,-0.520416 -0.679108,-1.058929 -0.267593,-1.058258zm-25.978333,53.264526c-0.15831,0.67627 -0.251907,1.238403 -0.340988,1.71875c-0.050461,-0.747772 0.023743,-1.372406 0.340988,-1.71875zm984.075134,55.518127c0.099121,-0.034454 0.170288,-0.019196 0.271362,0.000458c0.372559,0.069427 0.783447,0.479309 1.215454,1.191132c0.689575,1.144958 5.196289,7.05542 10.05127,13.110535c18.459839,23.021484 30.61792,43.232117 31.961182,53.353699c1.605469,12.086853 -22.267334,58.186829 -40.076416,77.44751c-4.831787,5.225586 -9.449951,7.221985 -11.027466,4.67926c-6.141602,-9.900757 -5.029785,-59.134583 2.970581,-126.776123c1.899536,-16.056244 3.157593,-22.515564 4.634033,-23.00647zm-99.93335,178.405579c2.47583,-0.099548 5.105591,0.22345 5.677246,1.133484c0.408447,0.651306 -0.716919,2.519714 -2.509888,4.162781c-3.154297,2.897095 -3.326904,2.933472 -5.610962,0.454468c-1.2948,-1.408936 -2.360596,-3.278503 -2.359131,-4.170654c0.001343,-0.930664 2.324951,-1.480652 4.802734,-1.580078zm-750.972046,248.013245c0.025818,-0.023682 0.038818,-0.017151 0.066742,0.000061c0.077576,0.041077 0.18277,0.194336 0.270599,0.528259c0.355621,1.334167 0.352081,3.56189 -0.00769,4.892883c-0.357544,1.335022 -0.674652,0.220642 -0.67041,-2.446472c0.002716,-1.751587 0.155243,-2.820007 0.340759,-2.974731zm-74.178131,8.412476l6.017426,0.009583c10.595428,0.05542 11.117462,2.411133 1.943542,9.329712c-6.35022,4.787842 -7.982025,4.007568 -7.96936,-4.047852l0.008392,-5.291443zm366.258759,68.498657l2.963867,7.280273c1.661194,4.003418 3.702087,7.712341 4.513428,8.273804c0.815613,0.561279 4.464722,0.987244 8.112122,1.003723l6.626953,0.079468l4.13678,-8.329224l4.069885,-8.260132l-12.379578,4.149353l-18.043457,-4.197266z"/>
  </g>
 </g>
</svg>